<svg id="Component_1_1" data-name="Component 1 – 1" xmlns="http://www.w3.org/2000/svg" width="100px" viewBox="0 0 295.999 75.077">
  <path id="Path_12" data-name="Path 12" d="M243.667-55.788c-.881,5.782-5.3,5.782-9.566,5.782h-2.43L233.377-60.8a1.341,1.341,0,0,1,1.325-1.132h1.115c2.907,0,5.653,0,7.069,1.655.845.991,1.1,2.461.781,4.49m-1.859-15.086H225.7a2.243,2.243,0,0,0-2.214,1.89l-6.509,41.3a1.344,1.344,0,0,0,.306,1.08,1.344,1.344,0,0,0,1.019.471h8.265a1.567,1.567,0,0,0,1.547-1.321l1.848-11.713a2.239,2.239,0,0,1,2.21-1.89h5.1c10.612,0,16.734-5.132,18.334-15.31.721-4.448.029-7.946-2.054-10.394-2.291-2.691-6.351-4.116-11.74-4.116" transform="translate(-13.154 90.769)" fill="#fff"/>
  <path id="Path_13" data-name="Path 13" d="M128.781-55.788c-.881,5.782-5.3,5.782-9.568,5.782h-2.43L118.489-60.8a1.341,1.341,0,0,1,1.325-1.132h1.115c2.907,0,5.653,0,7.069,1.655.847.991,1.1,2.461.783,4.49m-1.859-15.086H110.815a2.24,2.24,0,0,0-2.212,1.89l-6.511,41.3a1.342,1.342,0,0,0,.3,1.081,1.342,1.342,0,0,0,1.02.47h7.692a2.238,2.238,0,0,0,2.21-1.89l1.759-11.142a2.237,2.237,0,0,1,2.21-1.89h5.1c10.612,0,16.734-5.134,18.334-15.312.721-4.448.029-7.946-2.054-10.394-2.291-2.691-6.351-4.116-11.74-4.116M164.319-40.96a8.6,8.6,0,0,1-8.706,7.366,6.511,6.511,0,0,1-5.179-2.083,6.547,6.547,0,0,1-1.209-5.416,8.63,8.63,0,0,1,8.643-7.422,6.5,6.5,0,0,1,5.142,2.1,6.64,6.64,0,0,1,1.308,5.454m10.749-15.015h-7.713a1.344,1.344,0,0,0-1.329,1.136l-.336,2.156-.54-.781c-1.67-2.424-5.393-3.236-9.111-3.236-8.521,0-15.8,6.459-17.216,15.513a14.562,14.562,0,0,0,2.872,11.852c2.353,2.768,5.711,3.921,9.713,3.921a14.768,14.768,0,0,0,10.679-4.411l-.345,2.143a1.342,1.342,0,0,0,.306,1.082,1.342,1.342,0,0,0,1.021.469h6.945a2.239,2.239,0,0,0,2.212-1.89l4.17-26.4a1.344,1.344,0,0,0-.307-1.082,1.344,1.344,0,0,0-1.022-.469" transform="translate(-13.154 90.769)" fill="#fff"/>
  <path id="Path_14" data-name="Path 14" d="M279.2-40.96a8.6,8.6,0,0,1-8.706,7.366,6.511,6.511,0,0,1-5.179-2.083,6.547,6.547,0,0,1-1.209-5.416,8.628,8.628,0,0,1,8.643-7.422,6.5,6.5,0,0,1,5.142,2.1A6.64,6.64,0,0,1,279.2-40.96m10.749-15.015h-7.713a1.344,1.344,0,0,0-1.329,1.136l-.336,2.156-.54-.781c-1.67-2.424-5.393-3.236-9.111-3.236-8.519,0-15.8,6.459-17.216,15.513a14.562,14.562,0,0,0,2.874,11.852c2.353,2.768,5.711,3.921,9.713,3.921a14.77,14.77,0,0,0,10.681-4.411l-.345,2.143a1.338,1.338,0,0,0,.3,1.082,1.337,1.337,0,0,0,1.02.47H284.9a2.242,2.242,0,0,0,2.214-1.89l4.17-26.4a1.344,1.344,0,0,0-.307-1.082,1.344,1.344,0,0,0-1.022-.469" transform="translate(-13.154 90.769)" fill="#fff"/>
  <path id="Path_15" data-name="Path 15" d="M216.148-55.973h-7.755a2.229,2.229,0,0,0-1.848.982l-10.7,15.75-4.534-15.135a2.243,2.243,0,0,0-2.145-1.6h-7.62a1.344,1.344,0,0,0-1.092.562,1.344,1.344,0,0,0-.179,1.216l8.535,25.058L180.787-17.81a1.344,1.344,0,0,0-.1,1.392,1.344,1.344,0,0,0,1.192.726h7.746a2.242,2.242,0,0,0,1.838-.962l25.781-37.211a1.342,1.342,0,0,0,.088-1.387,1.342,1.342,0,0,0-1.189-.721" transform="translate(-13.154 90.769)" fill="#fff"/>
  <path id="Path_16" data-name="Path 16" d="M299.044-69.737l-6.612,42.056a1.344,1.344,0,0,0,.306,1.081,1.344,1.344,0,0,0,1.021.47h6.648a2.24,2.24,0,0,0,2.212-1.89l6.519-41.3a1.342,1.342,0,0,0-.306-1.082,1.342,1.342,0,0,0-1.021-.469h-7.439a1.34,1.34,0,0,0-1.327,1.134" transform="translate(-13.154 90.769)" fill="#fff"/>
  <path id="Path_17" data-name="Path 17" d="M37.068-71.617a2.924,2.924,0,0,1,2.885-2.465H58.245a38.457,38.457,0,0,1,6.033.436,25.351,25.351,0,0,1,2.991.669,16.525,16.525,0,0,1,3.221,1.283c.918-5.842,0-9.815-3.163-13.416-3.479-3.96-9.761-5.659-17.8-5.659H26.192a3.341,3.341,0,0,0-3.3,2.818L13.179-26.337a2,2,0,0,0,.455,1.614,2,2,0,0,0,1.522.7H29.563L33.18-46.97Z" transform="translate(-13.154 90.769)" fill="#fff"/>
  <path id="Path_18" data-name="Path 18" d="M70.491-71.7q-.107.685-.239,1.367c-3.076,15.8-13.6,21.262-27.052,21.262H36.354a3.327,3.327,0,0,0-3.285,2.818L29.563-24.024l-1,6.305a1.753,1.753,0,0,0,.4,1.413,1.753,1.753,0,0,0,1.333.614H42.44a2.923,2.923,0,0,0,2.885-2.465l.118-.619,2.289-14.5.145-.8a2.922,2.922,0,0,1,2.887-2.465h1.817c11.763,0,20.973-4.777,23.665-18.6,1.121-5.773.54-10.6-2.43-13.985A11.6,11.6,0,0,0,70.491-71.7" transform="translate(-13.154 90.769)" fill="#fff"/>
  <path id="Path_19" data-name="Path 19" d="M67.27-72.977q-.7-.209-1.452-.374c-.5-.11-1.013-.208-1.541-.291a37.716,37.716,0,0,0-6.035-.442H39.953a2.916,2.916,0,0,0-2.885,2.467L33.18-46.966l-.112.716a3.327,3.327,0,0,1,3.285-2.818H43.2c13.447,0,23.976-5.462,27.052-21.262.091-.467.168-.92.239-1.367a16.61,16.61,0,0,0-2.529-1.067c-.226-.075-.457-.145-.692-.216" transform="translate(-13.154 90.769)" fill="#fff"/>
</svg>
